<?xml version="1.0" encoding="UTF-8"?>
<svg version="1.1" xmlns="http://www.w3.org/2000/svg" width="256" height="256">
<path d="M0 0 C3.86004922 1.56307981 7.3994907 3.60434398 11 5.6875 C13.13774332 6.88591183 15.27577244 8.08381398 17.4140625 9.28125 C18.50364258 9.89871094 19.59322266 10.51617187 20.71582031 11.15234375 C24.8984012 13.50543416 29.11816199 15.78499095 33.34472656 18.05786133 C36.34129188 19.66937225 39.331533 21.29207072 42.3203125 22.91796875 C45.99422469 24.91585343 49.67668055 26.89624241 53.3671875 28.86328125 C54.99500872 29.74178543 56.62262553 30.62066852 58.25 31.5 C58.9826709 31.88502686 59.7153418 32.27005371 60.47021484 32.66674805 C64.56735606 34.89919608 67.43732945 36.96185246 70 41 C70.5556935 44.88985449 70.58762479 47.04279015 68.515625 50.41796875 C65.16677328 53.85522183 61.51474823 55.68689936 57.25 57.8125 C56.39583496 58.24989502 55.54166992 58.68729004 54.66162109 59.13793945 C52.11405998 60.43828181 49.55888081 61.72210171 47 63 C46.34483398 63.32838867 45.68966797 63.65677734 45.01464844 63.99511719 C42.59793054 65.20543882 40.17966395 66.41252537 37.75805664 67.61303711 C21.69289431 75.59980693 5.79974953 83.95996348 -10.0612793 92.34301758 C-14.44402935 94.65889979 -18.83536325 96.95731572 -23.234375 99.2421875 C-24.29543457 99.79366455 -25.35649414 100.3451416 -26.44970703 100.91333008 C-28.53321029 101.99545099 -30.61749516 103.07606861 -32.70263672 104.1550293 C-33.63865723 104.64140869 -34.57467773 105.12778809 -35.5390625 105.62890625 C-36.79517334 106.2796814 -36.79517334 106.2796814 -38.07666016 106.94360352 C-39.94798373 107.85486289 -39.94798373 107.85486289 -41 109 C-35.97361598 111.59974885 -30.93828605 114.18091553 -25.89379883 116.74536133 C-24.17930324 117.62020326 -22.46735496 118.50005622 -20.75805664 119.38500977 C-18.29967348 120.65668575 -15.83267254 121.91001936 -13.36328125 123.16015625 C-12.60163162 123.55904556 -11.83998199 123.95793488 -11.05525208 124.36891174 C-6.92356232 126.45617227 -6.92356232 126.45617227 -2.39868164 126.93579102 C0.72970035 125.71532403 3.72736278 124.34921838 6.7421875 122.8671875 C7.38761505 122.55226349 8.0330426 122.23733948 8.69802856 121.91287231 C10.7597283 120.90567255 12.81747769 119.89070213 14.875 118.875 C17.55882188 117.5576994 20.24404916 116.24328039 22.9296875 114.9296875 C23.59143982 114.60595154 24.25319214 114.28221558 24.93499756 113.94866943 C29.73663677 111.60465972 34.55048407 109.28791717 39.3828125 107.0078125 C40.01911591 106.70438934 40.65541931 106.40096619 41.31100464 106.08834839 C45.76671338 104 45.76671338 104 48 104 C47.98952637 102.9805127 47.97905273 101.96102539 47.96826172 100.91064453 C47.93211273 97.13496398 47.90911823 93.35929879 47.89013672 89.58349609 C47.88006746 87.94805328 47.86641119 86.31262851 47.84912109 84.67724609 C47.82491295 82.3290563 47.81352643 79.98110412 47.8046875 77.6328125 C47.79436493 76.89942657 47.78404236 76.16604065 47.77340698 75.41043091 C47.77300632 73.60537303 47.87787245 71.8009217 48 70 C50 68 50 68 52.5 67.75 C55 68 55 68 57 70 C57.24905474 72.80997894 57.37654155 75.51770124 57.40625 78.33203125 C57.41765015 79.16079269 57.42905029 79.98955414 57.4407959 80.84342957 C57.45970454 82.59942512 57.47276735 84.35549179 57.48046875 86.11157227 C57.499855 88.79244778 57.56186213 91.47023748 57.625 94.15039062 C57.63806337 95.85675262 57.64856303 97.56313656 57.65625 99.26953125 C57.6809436 100.06865433 57.70563721 100.8677774 57.7310791 101.69111633 C57.69615167 106.07846473 57.45977437 107.50656085 54.35253906 110.84130859 C51.18978904 112.87779532 48.09771273 114.65180603 44.703125 116.26953125 C44.11601242 116.55187119 43.52889984 116.83421112 42.92399597 117.12510681 C41.03668467 118.02963105 39.14367251 118.92138115 37.25 119.8125 C35.94515856 120.43407656 34.64055367 121.05614992 33.33618164 121.67871094 C24.72335211 125.77599636 16.05724662 129.74777574 7.30859375 133.546875 C4.1620553 134.83990151 4.1620553 134.83990151 2.03515625 136.203125 C-2.58577785 138.01247348 -6.33411307 137.64015621 -10.85644531 135.90234375 C-14.16144284 134.35070172 -17.39462782 132.70150797 -20.625 131 C-21.77621338 130.40711182 -22.92742676 129.81422363 -24.11352539 129.20336914 C-27.42053797 127.48978837 -30.71289658 125.7514155 -34 124 C-34.83225098 123.55897949 -35.66450195 123.11795898 -36.52197266 122.66357422 C-48.43189504 116.30008273 -48.43189504 116.30008273 -51 112 C-51.60100912 107.29209525 -50.72016524 104.8183756 -48 101 C-45.84960938 99.48950195 -45.84960938 99.48950195 -43.34375 98.23828125 C-42.41401367 97.76471191 -41.48427734 97.29114258 -40.52636719 96.80322266 C-39.52766602 96.31128418 -38.52896484 95.8193457 -37.5 95.3125 C-35.39039847 94.24393669 -33.28102634 93.17492037 -31.171875 92.10546875 C-30.12193359 91.57872559 -29.07199219 91.05198242 -27.99023438 90.50927734 C-23.88102117 88.4352117 -19.81488409 86.28424564 -15.75 84.125 C-8.0203072 80.04404928 -0.26212054 76.01886213 7.5 72 C17.57754551 66.78192146 27.63556752 61.52916421 37.67041016 56.22949219 C42.00730212 53.94060223 46.34768672 51.65834463 50.6875 49.375 C52.29558641 48.52867146 53.90366065 47.68231982 55.51171875 46.8359375 C56.66285156 46.23007813 57.81398437 45.62421875 59 45 C56.3599389 41.91835866 53.06382246 40.2738119 49.515625 38.4453125 C48.87130524 38.10708969 48.22698547 37.76886688 47.56314087 37.4203949 C46.17948691 36.69435584 44.79460702 35.97064923 43.40863037 35.24905396 C39.77393549 33.35637552 36.14796152 31.44722582 32.5234375 29.53515625 C31.79806793 29.15264206 31.07269836 28.77012787 30.3253479 28.37602234 C22.81396533 24.39903211 15.42710739 20.21431352 8.08300781 15.93603516 C7.22803711 15.44280762 6.37306641 14.94958008 5.4921875 14.44140625 C4.39946533 13.80247437 4.39946533 13.80247437 3.28466797 13.15063477 C-2.00203084 10.34381119 -2.00203084 10.34381119 -7.71875 10.86767578 C-8.6365625 11.3882959 -9.554375 11.90891602 -10.5 12.4453125 C-11.54075684 13.02176514 -12.58151367 13.59821777 -13.65380859 14.19213867 C-14.75805176 14.82998291 -15.86229492 15.46782715 -17 16.125 C-18.75345827 17.10474389 -20.50692327 18.08447642 -22.26107788 19.06297302 C-24.04147948 20.05994719 -25.81663666 21.06573912 -27.59082031 22.07373047 C-32.48595329 24.83959979 -37.43034738 27.5115597 -42.375 30.1875 C-52.60116053 35.75906721 -62.79612512 41.38786881 -73 47 C-73.33 72.41 -73.66 97.82 -74 124 C-72.02 124.66 -70.04 125.32 -68 126 C-65.96846754 126.93212083 -63.95461489 127.90343747 -61.95703125 128.90625 C-60.81008789 129.48036621 -59.66314453 130.05448242 -58.48144531 130.64599609 C-57.25835948 131.26379142 -56.0353799 131.88179714 -54.8125 132.5 C-53.5492249 133.13507014 -52.28587792 133.76999733 -51.02246094 134.40478516 C-43.89552233 137.99311388 -36.80181356 141.64094087 -29.75 145.375 C-29.00524414 145.76856689 -28.26048828 146.16213379 -27.49316406 146.56762695 C-26.76709961 146.95136475 -26.04103516 147.33510254 -25.29296875 147.73046875 C-24.5870459 148.10349121 -23.88112305 148.47651367 -23.15380859 148.86083984 C-21.67413458 149.64344685 -20.19533979 150.42771778 -18.71728516 151.21337891 C-16.50521566 152.38375363 -14.28522395 153.53751731 -12.0625 154.6875 C-11.40540039 155.03925293 -10.74830078 155.39100586 -10.07128906 155.75341797 C-6.78710834 157.53369267 -6.78710834 157.53369267 -3.1640625 157.75683594 C-0.36836266 156.77909795 2.2000582 155.5204802 4.84765625 154.19140625 C6.00096436 153.61414795 7.15427246 153.03688965 8.3425293 152.44213867 C9.5826436 151.81583806 10.82263118 151.18928646 12.0625 150.5625 C13.33563489 149.92216564 14.60882867 149.28194835 15.88208008 148.6418457 C27.62304707 142.72776291 39.27039435 136.64395917 50.83203125 130.38671875 C51.61618408 129.96495361 52.40033691 129.54318848 53.20825195 129.10864258 C54.69548152 128.30807041 56.17988581 127.50221886 57.66088867 126.69018555 C62.66359322 124 62.66359322 124 66 124 C65.99555878 123.3426738 65.99111755 122.6853476 65.98654175 122.00810242 C65.9423634 115.17900766 65.91215646 108.34995337 65.89013672 101.52075195 C65.88006672 98.97060498 65.86640996 96.42046958 65.84912109 93.87036133 C65.82491688 90.2091181 65.81352695 86.54802726 65.8046875 82.88671875 C65.79436493 81.7428923 65.78404236 80.59906586 65.77340698 79.420578 C65.77325592 78.35970474 65.77310486 77.29883148 65.77294922 76.20581055 C65.768508 75.27093307 65.76406677 74.3360556 65.75949097 73.37284851 C66 71 66 71 68 68 C71 67.625 71 67.625 74 68 C76.19361201 71.29041801 76.25544971 72.28848278 76.2746582 76.1105957 C76.28419022 77.15210281 76.29372223 78.19360992 76.30354309 79.26667786 C76.30217598 80.95418404 76.30217598 80.95418404 76.30078125 82.67578125 C76.30506638 83.83369675 76.3093515 84.99161224 76.31376648 86.18461609 C76.31951405 88.63666123 76.32000692 91.08872343 76.31567383 93.54077148 C76.31252125 97.28724433 76.33594318 101.03292213 76.36132812 104.77929688 C76.36360184 107.16145734 76.36430428 109.54361992 76.36328125 111.92578125 C76.372491 113.04471268 76.38170074 114.1636441 76.39118958 115.31648254 C76.35802513 120.91221134 76.31578908 125.24515456 73 130 C70.79199034 131.60882115 68.83709409 132.8252614 66.4375 134.0625 C65.75276611 134.43189697 65.06803223 134.80129395 64.36254883 135.18188477 C55.49173848 139.90997189 46.44717987 144.31794541 37.44140625 148.78125 C31.79342513 151.5889459 26.19736374 154.48304434 20.625 157.4375 C19.85849121 157.84137939 19.09198242 158.24525879 18.30224609 158.66137695 C15.00426773 160.40030441 11.71615699 162.15263508 8.44921875 163.94921875 C7.41410156 164.50222656 6.37898438 165.05523437 5.3125 165.625 C4.46300781 166.09164062 3.61351562 166.55828125 2.73828125 167.0390625 C-3.65019929 169.28095439 -7.83834777 168.31247664 -13.80078125 165.5078125 C-15.9799427 164.39689697 -18.15017618 163.26834318 -20.3125 162.125 C-21.4682251 161.53001709 -22.6239502 160.93503418 -23.81469727 160.32202148 C-27.21867591 158.5644517 -30.61064913 156.78558152 -34 155 C-35.65862611 154.13367781 -37.31745362 153.26774101 -38.9765625 152.40234375 C-41.19963992 151.23970257 -43.41947073 150.07213032 -45.63232422 148.89013672 C-49.78766893 146.67103809 -53.9639634 144.50625558 -58.18003845 142.40428162 C-60.6564081 141.16849517 -63.12682188 139.9210239 -65.59719849 138.67330933 C-67.39775916 137.76993863 -69.20650455 136.88294032 -71.01538086 135.99633789 C-72.67645874 135.15510376 -72.67645874 135.15510376 -74.37109375 134.296875 C-75.36036865 133.80541992 -76.34964355 133.31396484 -77.36889648 132.80761719 C-80.65985916 130.54666445 -82.06604215 128.49816382 -84 125 C-84.37486971 122.24737189 -84.53916798 119.90416611 -84.50170898 117.16210938 C-84.50711197 116.4003389 -84.51251495 115.63856842 -84.51808167 114.85371399 C-84.53053055 112.34999042 -84.51410448 109.8474255 -84.49609375 107.34375 C-84.49624883 105.59549906 -84.49773927 103.84724778 -84.50050354 102.09899902 C-84.50188581 98.44068138 -84.48935849 94.7827566 -84.46655273 91.12451172 C-84.43816855 86.44376579 -84.44090769 81.76367232 -84.45364285 77.08287811 C-84.46060987 73.47453271 -84.45279907 69.86633713 -84.44038582 66.25801086 C-84.43588126 64.53250199 -84.43552579 62.80697697 -84.43945122 61.08146667 C-84.44237354 58.66660796 -84.42580864 56.25263693 -84.40405273 53.83789062 C-84.40855438 53.13018021 -84.41305603 52.42246979 -84.41769409 51.6933136 C-84.34893843 47.08193055 -83.41707387 43.92180177 -81 40 C-78.80541992 38.31591797 -78.80541992 38.31591797 -76.23046875 36.9921875 C-75.27076172 36.486875 -74.31105469 35.9815625 -73.32226562 35.4609375 C-71.77055664 34.67589844 -71.77055664 34.67589844 -70.1875 33.875 C-67.99317704 32.72715979 -65.79917316 31.57870942 -63.60546875 30.4296875 C-62.49606934 29.85573242 -61.38666992 29.28177734 -60.24365234 28.69042969 C-55.45749378 26.19612275 -50.72932872 23.59996081 -46 21 C-40.13936353 17.79528326 -34.27192996 14.60356817 -28.39453125 11.4296875 C-26.74807617 10.54023437 -26.74807617 10.54023437 -25.06835938 9.6328125 C-22.93883833 8.48310108 -20.80865621 7.33461306 -18.67773438 6.1875 C-17.71802734 5.66929688 -16.75832031 5.15109375 -15.76953125 4.6171875 C-14.49493042 3.93052002 -14.49493042 3.93052002 -13.19458008 3.22998047 C-8.40255069 0.54422632 -5.58275182 -0.99410941 0 0 Z " fill="#0162FF" transform="translate(132,44)"/>
</svg>
