<?xml version="1.0" standalone="no"?>
<!DOCTYPE svg PUBLIC "-//W3C//DTD SVG 20010904//EN"
 "http://www.w3.org/TR/2001/REC-SVG-20010904/DTD/svg10.dtd">
<svg version="1.0" xmlns="http://www.w3.org/2000/svg"
 width="592.000000pt" height="143.000000pt" viewBox="0 0 592.000000 143.000000"
 preserveAspectRatio="xMidYMid meet">
<metadata>
Created by potrace 1.16, written by Peter Selinger 2001-2019
</metadata>
<g transform="translate(0.000000,143.000000) scale(0.100000,-0.100000)"
fill="#000000" stroke="none">
<path d="M995 1242 c-97 -54 -211 -116 -330 -180 -66 -35 -126 -69 -133 -75
-9 -7 -12 -78 -10 -316 l3 -306 90 -47 c50 -26 172 -89 273 -140 l183 -93 222
114 c122 62 246 127 275 143 l52 30 -2 211 -3 212 -25 0 -25 0 -5 -189 -5
-190 -90 -46 c-49 -26 -159 -82 -242 -125 l-153 -78 -212 108 c-117 59 -228
116 -245 127 l-33 20 0 257 0 257 73 36 c39 21 101 54 137 73 163 91 188 105
234 129 30 16 53 23 60 17 6 -4 45 -26 86 -48 41 -22 102 -55 135 -73 33 -18
89 -48 124 -67 36 -19 69 -37 74 -40 5 -3 -13 -17 -39 -30 -27 -14 -101 -52
-164 -85 -63 -34 -162 -85 -220 -116 -58 -30 -158 -81 -222 -115 -123 -64
-138 -80 -119 -130 7 -18 48 -44 159 -101 83 -42 159 -76 170 -76 18 0 73 24
291 126 51 24 97 44 102 44 5 0 15 13 24 30 11 21 15 61 15 148 0 128 -8 150
-50 137 -19 -6 -20 -14 -20 -125 l0 -118 -62 -30 c-35 -17 -116 -55 -181 -86
l-118 -55 -117 60 c-64 33 -120 64 -125 68 -4 4 32 27 80 52 97 49 420 218
578 301 78 42 101 58 103 77 7 48 -6 66 -70 99 -35 18 -94 50 -133 71 -38 22
-86 48 -105 58 -19 11 -70 38 -112 61 -42 23 -87 42 -100 41 -13 0 -45 -12
-73 -27z"/>
<path d="M3000 900 l0 -310 46 0 c37 0 47 4 51 20 5 20 5 20 30 0 29 -23 119
-28 156 -9 74 38 107 106 107 221 0 66 -5 92 -23 128 -41 81 -135 112 -217 70
l-40 -20 0 105 0 105 -55 0 -55 0 0 -310z m245 14 c17 -13 20 -27 20 -98 0
-77 -2 -85 -25 -105 -30 -25 -86 -27 -112 -4 -15 13 -18 31 -18 99 0 77 2 84
26 103 31 24 81 27 109 5z"/>
<path d="M1830 895 l0 -305 195 0 195 0 0 55 0 55 -130 0 -130 0 0 70 0 70
100 0 100 0 0 55 0 55 -100 0 -100 0 0 70 0 70 130 0 130 0 0 55 0 55 -195 0
-195 0 0 -305z"/>
<path d="M2416 1015 c-25 -17 -36 -20 -36 -11 0 18 -22 26 -71 26 l-39 0 0
-220 0 -220 60 0 60 0 0 139 0 139 32 27 c25 21 38 25 64 20 38 -7 42 -2 51
60 4 35 2 49 -8 56 -26 16 -76 9 -113 -16z"/>
<path d="M2675 1027 c-55 -22 -84 -48 -110 -100 -57 -115 -17 -265 85 -317 57
-29 171 -28 224 3 54 31 63 47 41 80 -20 31 -46 34 -89 12 -15 -8 -46 -15 -68
-15 -32 0 -46 6 -69 31 -51 54 -43 59 92 59 66 0 129 5 140 10 13 8 19 21 19
45 0 43 -31 126 -56 153 -44 46 -143 65 -209 39z"/>
<path d="M3603 1020 c-18 -11 -33 -25 -34 -32 0 -7 -5 -1 -11 15 -9 24 -15 27
-54 27 l-44 0 0 -220 0 -220 55 0 55 0 0 136 0 136 30 30 c26 25 36 29 62 24
43 -9 58 8 58 64 0 34 -4 50 -16 54 -29 11 -69 6 -101 -14z"/>
<path d="M4274 1021 c-54 -25 -74 -58 -74 -125 0 -47 4 -59 29 -83 16 -16 48
-35 72 -43 59 -18 99 -38 99 -50 0 -18 -32 -40 -58 -40 -15 0 -40 7 -56 15
-38 20 -66 19 -82 -2 -42 -56 22 -106 136 -106 109 0 170 55 170 151 0 57 -33
92 -114 121 -79 28 -99 47 -71 67 25 18 46 18 96 -3 41 -16 42 -16 61 7 29 36
19 62 -32 87 -55 27 -120 28 -176 4z"/>
<path d="M3752 858 c3 -191 11 -218 70 -253 41 -24 118 -24 163 1 34 18 37 18
46 2 7 -13 23 -18 54 -18 l45 0 0 220 0 220 -60 0 -60 0 0 -154 c0 -152 0
-154 -25 -170 -32 -21 -78 -20 -98 2 -14 16 -17 43 -17 170 l0 152 -61 0 -61
0 4 -172z"/>
<path d="M3137 483 c-4 -3 -7 -24 -7 -45 0 -37 -1 -38 -34 -38 -22 0 -45 -9
-62 -23 -24 -21 -27 -31 -27 -87 0 -57 2 -66 28 -87 21 -19 35 -23 54 -18 14
4 41 6 59 6 l32 -1 0 150 c0 139 -1 150 -18 150 -10 0 -22 -3 -25 -7z"/>
<path d="M3317 483 c-4 -3 -7 -71 -7 -150 l0 -145 28 3 c15 1 37 -1 50 -5 52
-17 112 40 112 107 0 38 -20 86 -40 97 -26 14 -74 12 -88 -2 -9 -9 -12 1 -12
45 0 49 -3 57 -18 57 -10 0 -22 -3 -25 -7z"/>
<path d="M5022 478 c-7 -7 -12 -21 -12 -33 0 -12 5 -26 12 -33 9 -9 9 -12 0
-12 -9 0 -12 -30 -12 -105 l0 -105 35 0 35 0 0 105 c0 75 -3 105 -12 105 -9 0
-9 3 0 12 24 24 8 78 -23 78 -6 0 -16 -5 -23 -12z"/>
<path d="M3800 335 l0 -145 30 0 30 0 0 81 0 82 62 -82 c52 -67 67 -81 90 -81
l28 0 0 145 0 145 -30 0 -29 0 -3 -82 -3 -81 -63 81 c-49 63 -69 82 -88 82
l-24 0 0 -145z"/>
<path d="M4438 465 c-19 -11 -29 -26 -34 -51 -10 -53 9 -83 67 -107 33 -14 49
-26 47 -37 -4 -18 -46 -26 -61 -11 -15 15 -54 14 -60 -3 -3 -9 -15 -12 -31 -9
-23 5 -26 10 -26 49 0 40 2 44 25 44 21 0 25 5 25 30 0 25 -4 30 -25 30 -21 0
-25 5 -25 30 0 25 -4 30 -24 30 -19 0 -26 -7 -31 -29 -3 -16 -13 -32 -21 -35
-19 -7 -18 -45 1 -52 11 -5 15 -22 15 -69 0 -47 4 -66 18 -78 24 -22 57 -22
80 1 16 16 19 16 55 -2 75 -37 147 2 147 79 0 49 -8 75 -22 75 -5 0 -29 9 -54
20 -57 26 -49 45 16 36 48 -6 60 1 60 38 0 33 -94 46 -142 21z"/>
<path d="M4113 395 c-24 -10 -35 -24 -44 -53 -32 -109 49 -192 145 -147 39 19
45 35 21 55 -12 10 -21 10 -41 1 -18 -8 -31 -8 -45 -1 -35 19 -20 30 41 30 57
0 60 1 60 24 0 42 -18 74 -49 91 -36 18 -47 18 -88 0z"/>
<path d="M4648 394 c-36 -19 -48 -43 -48 -99 0 -57 12 -80 50 -100 37 -19 63
-19 100 0 31 16 36 30 20 55 -8 12 -14 13 -41 3 -22 -9 -38 -9 -50 -2 -35 18
-20 29 40 29 33 0 63 5 67 11 3 6 1 29 -7 51 -10 31 -21 44 -46 54 -40 17 -51
17 -85 -2z"/>
<path d="M4886 403 c-4 -4 -22 -6 -41 -5 l-35 3 0 -136 0 -135 30 0 c26 0 30
4 30 28 0 26 3 28 30 24 23 -3 36 3 60 26 26 27 30 38 30 85 0 70 -6 84 -41
102 -31 16 -52 19 -63 8z"/>
<path d="M5154 396 c-39 -17 -58 -62 -51 -123 14 -125 180 -125 194 0 7 63
-11 104 -55 122 -42 18 -48 18 -88 1z"/>
<path d="M1790 263 l0 -133 25 0 c21 0 25 5 25 29 0 28 2 29 33 24 69 -11 121
74 96 158 -7 22 -20 44 -29 49 -9 5 -46 8 -83 8 l-67 -1 0 -134z"/>
<path d="M2033 388 c-38 -18 -53 -87 -32 -147 23 -64 116 -79 159 -24 31 39
28 126 -5 158 -26 27 -81 33 -122 13z"/>
<path d="M2190 387 c0 -7 13 -54 29 -103 25 -79 31 -89 52 -89 21 0 27 9 44
62 l20 62 20 -65 c17 -58 22 -65 43 -62 21 3 28 16 53 93 35 108 36 117 7 113
-18 -2 -27 -16 -42 -63 l-19 -60 -21 63 c-16 50 -24 62 -41 62 -17 0 -25 -12
-41 -62 l-20 -63 -19 63 c-16 53 -22 62 -42 62 -13 0 -23 -6 -23 -13z"/>
<path d="M2515 375 c-33 -32 -36 -119 -5 -158 24 -31 74 -43 113 -28 54 21 45
73 -10 54 -33 -12 -73 0 -73 22 0 12 13 15 60 15 l60 0 0 40 c0 54 -27 80 -80
80 -30 0 -47 -7 -65 -25z"/>
<path d="M2849 387 c-37 -28 -50 -96 -29 -151 25 -67 160 -70 160 -4 0 17 -5
19 -45 12 -30 -4 -50 -2 -60 6 -28 23 -15 30 50 30 l65 0 0 35 c0 50 -36 85
-87 85 -21 0 -45 -6 -54 -13z"/>
<path d="M3500 386 c0 -8 16 -51 35 -96 33 -77 34 -83 20 -110 -21 -40 -19
-50 9 -50 20 0 30 15 75 118 56 128 61 152 32 152 -14 0 -28 -18 -48 -62 l-30
-63 -13 40 c-7 22 -20 50 -28 63 -16 24 -52 30 -52 8z"/>
</g>
</svg>
